/* XPM */
static const char *lanebus[] = {
/* columns rows colors chars-per-pixel */
/* columns rows colors chars-per-pixel */
"32 32 2 1 ",
"  c #231F20",
". c None",
/* pixels */
"................   .............",
"...............     ............",
"...............     ............",
"...............     ............",
"................   .............",
"................................",
"...............    .............",
"..............     .............",
"............        ............",
"...........         ............",
"..........           ...........",
"..........  .        ...........",
".........   .         ..........",
".........  ..     ..    ........",
".........  ..     ...    .......",
".........  ..     .....   ......",
".........  .      ...... .......",
"............      ..............",
"............       .............",
"............        ............",
"...........    .     ...........",
"...........    ..     ..........",
"...........    ...    ..........",
"..........    .....    .........",
"..........    .....    .........",
".........    ......    .........",
".........    .......   .........",
"........    ........   .........",
".......     ........    ........",
".......    .........    ........",
"........  ...........  .........",
"................................"
};