/* XPM */
static const char *lanebike[] = {
/* columns rows colors chars-per-pixel */
"32 32 3 1 ",
"  c black",
". c gray1",
"X c None",
/* pixels */
"XXXXXXXXXXXXXXXXXXXXXXXXXXXXXXXX",
"XXXXXXXXXXXXXXXXXXXXXXXXXXXXXXXX",
"XXXXXXXXXXXXXXXXXXXXXXXXXXXXXXXX",
"XXXXXXXXXXXXXXXXXXXXXXXXXXXXXXXX",
"XXXXXXXXXXXXXXXXXXXXXXXXXXXXXXXX",
"XXXXXXXXXXXXXXXXXXXXXXXXXXXXXXXX",
"XXXXXXXXXXXXXXXXXXXXXXXXXXXXXXXX",
"XXXXXXXXXXXXXXXXXXXXXXXXXXXXXXXX",
"XXXXXXXXX    XXXX     XXXXXXXXXX",
"XXXXXXXX   XXXXXXXXXX XXXXXXXXXX",
"XXXXXXXXXX XXXXXXXXXX XXXXXXXXXX",
"XXXXXXXXXX             XXXXXXXXX",
"XXXXXXXXX X XXXXXXXX X XXXXXXXXX",
"XXXXXXXX  X  XXXXXX  X  XXXXXXXX",
"XXX      XXX XXXXX  XX      XXXX",
"X  XXXX   XX  XXXX XX   XXXX  XX",
"X XXXXX X  XX X   XX  XX XXXX XX",
"  XXXX XXX XXX    XX XXX XXXX  X",
" XXXX. XXX XXX   XXX XXX  XXXX X",
" XXXX           XXXX XXXX XXXX X",
" XXXXXXXXX XXXX XXXX XXXXXXXXX X",
"  XXXXXXXX XXXX XXXX XXXXXXXX  X",
"X XXXXXXX XXXX  XXXXX XXXXXXX XX",
"XX  XXXX  XXXXXXXXXXX  XXXX  XXX",
"XXX     XXXXXXXXXXXXXXX     XXXX",
"XXXXXXXXXXXXXXXXXXXXXXXXXXXXXXXX",
"XXXXXXXXXXXXXXXXXXXXXXXXXXXXXXXX",
"XXXXXXXXXXXXXXXXXXXXXXXXXXXXXXXX",
"XXXXXXXXXXXXXXXXXXXXXXXXXXXXXXXX",
"XXXXXXXXXXXXXXXXXXXXXXXXXXXXXXXX",
"XXXXXXXXXXXXXXXXXXXXXXXXXXXXXXXX",
"XXXXXXXXXXXXXXXXXXXXXXXXXXXXXXXX"
};